<svg xmlns="http://www.w3.org/2000/svg" xmlns:xlink="http://www.w3.org/1999/xlink" viewBox="0 0 256 256" width="256" height="256" xmlns:v="https://vecta.io/nano"><linearGradient id="A" gradientUnits="userSpaceOnUse" x1="11.198" y1="244.813" x2="244.824" y2="11.187"><stop offset="0" stop-color="#158474"/><stop offset="1" stop-color="#27b273"/></linearGradient><path d="M38.2 0h179.6C238.9 0 256 17.1 256 38.2v179.6c0 21.09-17.1 38.2-38.2 38.2H38.2C17.1 256 0 238.9 0 217.8V38.2C0 17.1 17.1 0 38.2 0z" fill="url(#A)"/><g fill="#fff"><use xlink:href="#C"/><use xlink:href="#C" x="162.08"/><path d="M164.72 210.5H91.28a12.04 12.04 0 0 1-12-12v-141a12.04 12.04 0 0 1 12-12h73.44a12.04 12.04 0 0 1 12 12v141a12.04 12.04 0 0 1-12 12z"/></g><defs ><path id="C" d="M56.31 190.99h-18.7a12.04 12.04 0 0 1-12-12V77.01a12.04 12.04 0 0 1 12-12h18.7a12.04 12.04 0 0 1 12 12v101.98a12.04 12.04 0 0 1-12 12z"/></defs></svg>